<svg width="108" height="28" viewBox="0 0 108 28" xmlns="http://www.w3.org/2000/svg"><path d="M92.324 28.153h7.858V6.589H108V-.01H84.506v6.598h7.818v21.564zM66.452 12.905v-6.84h4.514c2.901 0 4.312 1.168 4.312 3.42 0 2.254-1.41 3.42-4.312 3.42h-4.514zm-7.858 15.248h7.858V18.98h4.675c7.052 0 11.767-2.977 11.767-9.494 0-6.518-4.714-9.495-11.767-9.495H58.594v28.162zm-27 0h21.398v-6.316h-13.54v-4.788h13.42v-6.035h-13.42V6.307h13.54V-.009H31.594v28.162zM7.858 21.595V6.55h2.499c5.52 0 8.906 1.93 8.906 7.523 0 5.592-3.386 7.523-8.906 7.523H7.858zM0 28.153h10.276c9.712 0 16.764-3.822 16.764-14.081C27.04 3.812 19.988-.01 10.276-.01H0v28.162z" fill="none" fill-rule="evenodd"/></svg>