<?xml version="1.0" encoding="UTF-8" standalone="no"?>
<svg width="108px" height="28px" viewBox="0 0 108 28" version="1.1" xmlns="http://www.w3.org/2000/svg" xmlns:xlink="http://www.w3.org/1999/xlink">
    <!-- Generator: Sketch 3.7.1 (28215) - http://www.bohemiancoding.com/sketch -->
    <title>Artboard</title>
    <desc>Created with Sketch.</desc>
    <defs></defs>
    <g id="Page-1" stroke="none" stroke-width="1" fill="none" fill-rule="evenodd">
        <g id="Artboard">
            <path d="M92.3238633,28.1527383 L100.182129,28.1527383 L100.182129,6.58880859 L108,6.58880859 L108,-0.009 L84.5058867,-0.009 L84.5058867,6.58880859 L92.3238633,6.58880859 L92.3238633,28.1527383 L92.3238633,28.1527383 Z M66.4523789,12.9051211 L66.4523789,6.06568359 L70.9657031,6.06568359 C73.8671484,6.06568359 75.277582,7.23258984 75.277582,9.48561328 C75.277582,11.7386367 73.8671484,12.9051211 70.9657031,12.9051211 L66.4522734,12.9051211 L66.4523789,12.9051211 Z M58.5942188,28.1527383 L66.4523789,28.1527383 L66.4523789,18.9800156 L71.1269648,18.9800156 C78.1791328,18.9800156 82.8941133,16.0029492 82.8941133,9.48561328 C82.8941133,2.96827734 78.1796602,-0.009 71.1269648,-0.009 L58.5941133,-0.009 L58.5941133,28.1527383 L58.5942188,28.1527383 Z M31.5942187,28.1527383 L52.992457,28.1527383 L52.992457,21.8365312 L39.4522734,21.8365312 L39.4522734,17.0487773 L52.8714844,17.0487773 L52.8714844,11.0141719 L39.4522734,11.0141719 L39.4522734,6.30720703 L52.992457,6.30720703 L52.992457,-0.009 L31.5940078,-0.009 L31.5940078,28.1527383 L31.5942187,28.1527383 Z M7.85816016,21.5952187 L7.85816016,6.54851953 L10.3570313,6.54851953 C15.877793,6.54851953 19.262918,8.47944141 19.262918,14.0717109 C19.262918,19.6639805 15.8773711,21.5952187 10.3570313,21.5952187 L7.85816016,21.5952187 L7.85816016,21.5952187 Z M0,28.1527383 L10.2760313,28.1527383 C19.9880156,28.1527383 27.0401836,24.3306562 27.0401836,14.0717109 C27.0401836,3.81276562 19.9880156,-0.009 10.2760313,-0.009 L0,-0.009 L0,28.1527383 L0,28.1527383 Z" id="Shape"></path>
        </g>
    </g>
</svg>